<svg width="803" height="508" viewBox="0 0 803 508" fill="none" xmlns="http://www.w3.org/2000/svg">
<g id="undraw_software_engineer_re_fyew 1">
<path id="Vector" d="M516.478 21.7419H298.449C296.576 21.7449 294.78 22.4903 293.456 23.8149C292.131 25.1395 291.386 26.9351 291.383 28.8083V175.935C291.384 177.809 292.13 179.605 293.454 180.93C294.779 182.255 296.575 183 298.449 183.002H516.478C518.352 183 520.148 182.255 521.473 180.93C522.798 179.605 523.543 177.809 523.545 175.935V28.8083C523.542 26.9351 522.796 25.1395 521.471 23.8149C520.147 22.4903 518.351 21.7449 516.478 21.7419V21.7419Z" fill="#E6E6E6"/>
<path id="Vector_2" d="M514.658 26.8459H300.271C299.268 26.848 298.307 27.248 297.598 27.9579C296.89 28.6679 296.492 29.6299 296.492 30.6329V174.113C296.493 175.115 296.892 176.075 297.6 176.783C298.309 177.492 299.269 177.89 300.271 177.892H514.658C515.66 177.89 516.62 177.492 517.328 176.783C518.037 176.075 518.436 175.115 518.437 174.113V30.6328C518.437 29.6299 518.039 28.6679 517.331 27.9579C516.622 27.248 515.661 26.848 514.658 26.8459V26.8459Z" fill="#121212"/>
<path id="Vector_3" d="M503.881 46.6142H303.28C303.071 46.6096 302.873 46.5236 302.727 46.3745C302.581 46.2253 302.499 46.0251 302.499 45.8165C302.499 45.6079 302.581 45.4076 302.727 45.2585C302.873 45.1094 303.071 45.0234 303.28 45.0188H503.881C504.09 45.0234 504.288 45.1094 504.434 45.2585C504.58 45.4076 504.662 45.6079 504.662 45.8165C504.662 46.0251 504.58 46.2253 504.434 46.3745C504.288 46.5236 504.09 46.6096 503.881 46.6142Z" fill="#CACACA"/>
<path id="Vector_4" d="M316.935 40.9457C319.517 40.9457 321.61 38.8059 321.61 36.1664C321.61 33.5269 319.517 31.3871 316.935 31.3871C314.353 31.3871 312.26 33.5269 312.26 36.1664C312.26 38.8059 314.353 40.9457 316.935 40.9457Z" fill="#CCCCCC"/>
<path id="Vector_5" d="M333.085 40.9457C335.667 40.9457 337.76 38.8059 337.76 36.1664C337.76 33.5269 335.667 31.3871 333.085 31.3871C330.503 31.3871 328.41 33.5269 328.41 36.1664C328.41 38.8059 330.503 40.9457 333.085 40.9457Z" fill="#CCCCCC"/>
<path id="Vector_6" d="M349.236 40.9457C351.818 40.9457 353.911 38.8059 353.911 36.1664C353.911 33.5269 351.818 31.3871 349.236 31.3871C346.654 31.3871 344.561 33.5269 344.561 36.1664C344.561 38.8059 346.654 40.9457 349.236 40.9457Z" fill="#CCCCCC"/>
<path id="Vector_7" d="M494.157 32.5717H482.685C482.458 32.5762 482.241 32.6698 482.082 32.8322C481.923 32.9946 481.834 33.2129 481.834 33.4404C481.834 33.6678 481.923 33.8861 482.082 34.0485C482.241 34.2109 482.458 34.3045 482.685 34.309H494.157C494.385 34.3045 494.601 34.2109 494.76 34.0485C494.92 33.8861 495.009 33.6678 495.009 33.4404C495.009 33.2129 494.92 32.9946 494.76 32.8322C494.601 32.6698 494.385 32.5762 494.157 32.5717V32.5717Z" fill="#CCCCCC"/>
<path id="Vector_8" d="M494.157 35.8324H482.685C482.458 35.8369 482.241 35.9305 482.082 36.0929C481.923 36.2553 481.834 36.4736 481.834 36.701C481.834 36.9284 481.923 37.1468 482.082 37.3092C482.241 37.4716 482.458 37.5651 482.685 37.5697H494.157C494.385 37.5651 494.601 37.4716 494.76 37.3092C494.92 37.1468 495.009 36.9284 495.009 36.701C495.009 36.4736 494.92 36.2553 494.76 36.0929C494.601 35.9305 494.385 35.8369 494.157 35.8324V35.8324Z" fill="#CCCCCC"/>
<path id="Vector_9" d="M494.157 39.0888H482.685C482.458 39.0934 482.241 39.1869 482.082 39.3493C481.923 39.5117 481.834 39.7301 481.834 39.9575C481.834 40.1849 481.923 40.4032 482.082 40.5657C482.241 40.7281 482.458 40.8216 482.685 40.8262H494.157C494.385 40.8216 494.601 40.7281 494.76 40.5657C494.92 40.4032 495.009 40.1849 495.009 39.9575C495.009 39.7301 494.92 39.5117 494.76 39.3493C494.601 39.1869 494.385 39.0934 494.157 39.0888V39.0888Z" fill="#CCCCCC"/>
<path id="Vector_10" d="M309.277 249.18H249.277C247.155 249.18 245.12 250.023 243.62 251.523C242.119 253.024 241.277 255.058 241.277 257.18C241.277 259.302 242.119 261.337 243.62 262.837C245.12 264.337 247.155 265.18 249.277 265.18H271.277V327.18H287.277V265.18H309.277C311.398 265.18 313.433 264.337 314.933 262.837C316.434 261.337 317.277 259.302 317.277 257.18C317.277 255.058 316.434 253.024 314.933 251.523C313.433 250.023 311.398 249.18 309.277 249.18V249.18Z" fill="#3F3D56"/>
<path id="Vector_11" d="M348.878 361.517H188.395C172.837 361.46 157.818 355.808 146.083 345.593C134.348 335.379 126.679 321.283 124.478 305.881L118.798 284.986C107.04 241.685 89.13 200.296 65.6162 162.083C54.8688 144.629 49.3372 127.734 61.9013 111.467C62.0083 111.329 62.1135 111.192 62.2169 111.058C72.2941 97.9415 122.451 95.1021 138.802 94.5499C139.448 94.5279 140.097 94.517 140.748 94.5171H240.567C241.218 94.5171 241.866 94.528 242.511 94.5499C251.326 94.8068 259.906 97.4451 267.343 102.185C274.779 106.925 280.793 113.589 284.748 121.471C288.967 129.518 290.93 138.557 290.427 147.63C289.924 156.702 286.975 165.469 281.892 173.001C246.828 225.671 236.093 258.698 247.084 280.086C257.715 300.773 290.304 311.35 349.642 313.371C365.588 313.914 372.907 326.331 372.958 337.637C373.008 348.652 365.972 360.813 350.405 361.485C349.9 361.506 349.39 361.517 348.878 361.517Z" fill="#121212"/>
<path id="Vector_12" d="M215.657 504.017H275.657C277.779 504.017 279.814 503.174 281.314 501.674C282.814 500.174 283.657 498.139 283.657 496.017C283.657 493.895 282.814 491.86 281.314 490.36C279.814 488.86 277.779 488.017 275.657 488.017H253.657V353.017H237.657V488.017H215.657C213.535 488.017 211.501 488.86 210 490.36C208.5 491.86 207.657 493.895 207.657 496.017C207.657 498.139 208.5 500.174 210 501.674C211.501 503.174 213.535 504.017 215.657 504.017Z" fill="#121212"/>
<path id="Vector_13" d="M269.963 449.592L280.299 455.206L307.661 417.375L292.405 409.088L269.963 449.592Z" fill="#A0616A"/>
<path id="Vector_14" d="M274.938 436.111L293.702 441.987L290.716 449.848L303.583 468.522C304.218 469.445 304.542 470.546 304.508 471.666C304.473 472.785 304.082 473.864 303.39 474.746C302.699 475.627 301.744 476.264 300.665 476.564C299.585 476.864 298.439 476.811 297.392 476.413L275.548 468.115L274.737 458.908L270.313 466.125L262.077 462.996L274.938 436.111Z" fill="#2F2E41"/>
<path id="Vector_15" d="M296.078 68.0756C296.323 69.7557 296.197 71.4692 295.708 73.0953C295.22 74.7214 294.38 76.2205 293.249 77.4871C292.119 78.7537 290.724 79.7569 289.163 80.4262C287.603 81.0954 285.915 81.4143 284.217 81.3605L244.366 166.156L231.867 148.726L272.891 68.545C273.171 65.6999 274.484 63.0563 276.582 61.1148C278.681 59.1734 281.418 58.0691 284.276 58.0113C287.134 57.9534 289.914 58.946 292.09 60.8009C294.265 62.6558 295.684 65.2442 296.078 68.0756V68.0756Z" fill="#A0616A"/>
<path id="Vector_16" d="M163.829 183.301C163.829 183.301 162.761 198.114 179.514 201.02C196.267 203.925 241.053 175.605 248.408 171.256C255.763 166.907 269.47 112.195 269.47 112.195L257.55 92.0336C242.832 110.651 231.275 127.818 230.573 140.004L163.829 183.301Z" fill="#6C63FF"/>
<path id="Vector_17" d="M183.169 234.327L186.787 249.873C186.787 249.873 186.823 264.208 189.362 266.851C191.883 269.482 247.317 264.2 247.317 264.2C247.317 264.2 241.44 241.1 241.518 223.622L183.169 234.327Z" fill="#A0616A"/>
<path id="Vector_18" d="M300.277 433.18L280.277 422.18C279.896 396.155 295.55 360.937 314.116 324.048C272.593 331.189 233.42 333.477 199.537 324.838C193.974 323.369 189.213 319.77 186.282 314.82C183.352 309.869 182.486 303.964 183.874 298.38C184.006 297.832 184.158 297.29 184.332 296.753C188.387 284.381 179.294 276.625 187.657 263.017C209.654 255.505 230.549 253.383 249.657 260.017L261.63 286.488L320.972 278.809C323.839 278.467 326.746 278.695 329.524 279.48C332.303 280.266 334.898 281.594 337.161 283.387C339.424 285.181 341.31 287.405 342.709 289.93C344.109 292.456 344.995 295.233 345.316 298.103C345.395 298.747 345.448 299.394 345.472 300.043C333.473 356.296 320.018 406.912 300.277 433.18Z" fill="#2F2E41"/>
<path id="Vector_19" d="M175.114 135.904L197.975 134.554C198.939 134.497 199.897 134.743 200.715 135.256C201.533 135.769 202.171 136.525 202.539 137.418L208.999 153.079L235.849 175.271C235.849 175.271 246.48 188.799 246.505 206.27C246.53 223.742 250.277 264.18 250.277 264.18C250.277 264.18 234.762 242.342 225.185 248.15C223.556 249.138 222.983 251.159 221.277 252.18C220.425 252.69 218.459 252.194 217.599 252.705C204.403 260.538 190.641 268.191 189.355 266.849C186.831 264.215 183.768 250.752 183.768 250.752L162.842 173.865C161.707 169.819 161.482 165.573 162.182 161.43C162.882 157.287 164.49 153.351 166.891 149.903C168.353 147.844 169.885 146.313 171.308 146.06C174.505 145.379 172.804 138.216 175.114 135.904Z" fill="#6C63FF"/>
<path id="Vector_20" d="M369.583 482.16L379.233 475.451L357.372 434.207L343.13 444.109L369.583 482.16Z" fill="#A0616A"/>
<path id="Vector_21" d="M371.042 454.486L355.918 468.005C331.87 441.209 313.691 403.629 298.285 360.952C257.919 349.13 227.478 330.064 200.903 307.425C191.887 299.797 185.129 289.997 192.818 280.704C193.178 280.27 193.553 279.85 193.944 279.444C203.022 270.114 226.045 271.892 239.529 263.344L269.65 295.541L267.755 304.172L324.333 323.337C327.055 324.291 329.561 325.775 331.707 327.702C333.853 329.63 335.596 331.963 336.836 334.568C338.076 337.173 338.788 339.997 338.931 342.878C339.073 345.759 338.644 348.64 337.668 351.354C337.456 351.968 337.218 352.572 336.955 353.166L371.042 454.486Z" fill="#2F2E41"/>
<path id="Vector_22" d="M363.957 479.44L379.404 467.275L384.204 474.18L406.882 474.111C408.002 474.108 409.094 474.462 409.998 475.123C410.902 475.784 411.572 476.717 411.908 477.785C412.245 478.853 412.231 480.001 411.87 481.061C411.508 482.121 410.816 483.038 409.897 483.677L390.71 497.015L382.655 492.484L386.111 500.211L378.877 505.24L363.957 479.44Z" fill="#2F2E41"/>
<path id="Vector_23" d="M208.872 329.673C207.309 329.01 205.911 328.011 204.775 326.749C203.64 325.487 202.795 323.991 202.3 322.367C201.805 320.742 201.672 319.029 201.911 317.348C202.15 315.667 202.754 314.059 203.682 312.637L151.928 234.535L173.314 232.909L220.516 309.616C222.802 311.333 224.379 313.828 224.948 316.63C225.517 319.431 225.038 322.344 223.603 324.816C222.168 327.289 219.875 329.149 217.16 330.044C214.445 330.939 211.496 330.807 208.872 329.673V329.673Z" fill="#A0616A"/>
<path id="Vector_24" d="M179.115 156.811C179.115 156.811 167.012 148.203 155.826 161.009C144.641 173.815 145.575 226.796 145.47 235.339C145.437 238.015 149.3 243.788 154.623 250.456C157.012 253.45 159.696 256.624 162.454 259.779C164.049 261.605 162.674 265.406 164.277 267.18C165.87 268.945 170.441 268.685 171.956 270.323C179.15 278.098 184.995 284.017 184.995 284.017L208.415 284.305C208.679 266.895 196.757 251.354 181.439 236.335L179.115 156.811Z" fill="#6C63FF"/>
<path id="Vector_25" d="M218.277 253.18H158.277C156.155 253.18 154.12 254.023 152.62 255.523C151.119 257.024 150.277 259.058 150.277 261.18C150.277 263.302 151.119 265.337 152.62 266.837C154.12 268.337 156.155 269.18 158.277 269.18H180.277V331.18H196.277V269.18H218.277C220.398 269.18 222.433 268.337 223.933 266.837C225.434 265.337 226.277 263.302 226.277 261.18C226.277 259.058 225.434 257.024 223.933 255.523C222.433 254.023 220.398 253.18 218.277 253.18V253.18Z" fill="#3F3D56"/>
<path id="Vector_26" d="M199.105 95.7419C199.105 102.638 196.366 109.251 191.49 114.127C186.614 119.003 180.001 121.742 173.105 121.742C158.746 121.742 145.105 105.101 145.105 90.7419C145.105 76.3825 158.746 69.7419 173.105 69.7419C180.001 69.7419 186.614 72.4812 191.49 77.3571C196.366 82.2331 199.105 88.8463 199.105 95.7419V95.7419Z" fill="#2F2E41"/>
<path id="Vector_27" d="M185.917 126.9C199.339 124.154 207.993 111.047 205.246 97.6258C202.5 84.2044 189.394 75.5505 175.972 78.2967C162.551 81.043 153.897 94.1495 156.643 107.571C159.389 120.992 172.496 129.646 185.917 126.9Z" fill="#A0616A"/>
<path id="Vector_28" d="M449.968 148H364.015C360.43 147.996 356.992 146.57 354.457 144.035C351.922 141.499 350.496 138.062 350.492 134.477V77.5235C350.496 73.938 351.922 70.5006 354.457 67.9653C356.992 65.4301 360.43 64.004 364.015 64H449.968C453.554 64.004 456.991 65.4301 459.526 67.9653C462.061 70.5006 463.488 73.938 463.492 77.5235V134.477C463.488 138.062 462.061 141.499 459.526 144.035C456.991 146.57 453.553 147.996 449.968 148ZM364.015 66C360.96 66.0035 358.031 67.2187 355.87 69.379C353.71 71.5393 352.495 74.4683 352.492 77.5235V134.477C352.495 137.532 353.71 140.461 355.871 142.621C358.031 144.781 360.96 145.997 364.015 146H449.968C453.023 145.997 455.952 144.781 458.113 142.621C460.273 140.461 461.488 137.532 461.492 134.477V77.5235C461.488 74.4683 460.273 71.5393 458.113 69.379C455.952 67.2187 453.023 66.0035 449.968 66H364.015Z" fill="#E6E6E6"/>
<path id="Vector_29" d="M389.483 82H366.491V84H389.483V82Z" fill="#E6E6E6"/>
<path id="Vector_30" d="M417.491 90H366.491V92H417.491V90Z" fill="#E6E6E6"/>
<path id="Vector_31" d="M417.491 97H366.491V99H417.491V97Z" fill="#E6E6E6"/>
<path id="Vector_32" d="M431.491 104H366.491V106H431.491V104Z" fill="#E6E6E6"/>
<path id="Vector_33" d="M400.491 111H366.491V113H400.491V111Z" fill="#E6E6E6"/>
<path id="Vector_34" d="M428.491 118H366.491V120H428.491V118Z" fill="#E6E6E6"/>
<path id="Vector_35" d="M377.491 125H366.491V127H377.491V125Z" fill="#E6E6E6"/>
</g>
</svg>
